 <svg class="icon" viewBox="0 0 1024 1024" version="1.1" xmlns="http://www.w3.org/2000/svg" p-id="3363" height="128" width="128"><path d="M864.872816 63.948451 159.127184 63.948451c-16.95516 0-30.699186 13.745049-30.699186 30.699186l0 834.704726c0 16.954137 13.744026 30.699186 30.699186 30.699186l705.745632 0c16.954137 0 30.699186-13.745049 30.699186-30.699186L895.572002 94.647637C895.572002 77.6935 881.826953 63.948451 864.872816 63.948451zM834.17363 898.653177 189.82637 898.653177 189.82637 125.346823l452.567399 0 0 353.261673c0 16.954137 13.745049 30.699186 30.699186 30.699186s30.699186-13.745049 30.699186-30.699186L703.792141 125.346823l130.381489 0L834.17363 898.653177z" p-id="3364"></path></svg>