<?xml version="1.0" encoding="utf-8"?>
<svg version="1.1" xmlns:xlink="http://www.w3.org/1999/xlink" width="10px" height="310px" preserveAspectRatio="xMidYMin meet" viewBox="826 2645  8 310" xmlns="http://www.w3.org/2000/svg">
  <path d="M 1043 2619  L 1043 2628.5  A 1.5 1.5 0 0 1 1041.5 2630 A 1.5 1.5 0 0 0 1040 2631.5 L 1040 2645  A 5 5 0 0 1 1035 2650 L 835 2650  A 5 5 0 0 0 830 2655 L 830 2945  A 5 5 0 0 0 835 2950 L 1355 2950  A 5 5 0 0 1 1360 2955 L 1360 2965  A 5 5 0 0 0 1365 2970 L 1378 2970  " stroke-width="2" stroke="#0099cc" fill="none" />
</svg>