<?xml version="1.0" encoding="utf-8"?>
<svg version="1.1" xmlns:xlink="http://www.w3.org/1999/xlink" width="281px" height="54px" xmlns="http://www.w3.org/2000/svg">
  <g transform="matrix(1 0 0 1 -897 -3905 )">
    <path d="M 897 3905  L 1178 3905  L 1178 3959  L 897 3959  L 897 3905  " fill-rule="nonzero" fill="#cccccc" stroke="none" />
    <path d="M 901 3909  L 1174 3909  L 1174 3955  L 901 3955  L 901 3909  " fill-rule="nonzero" fill="#ffffff" stroke="none" />
    <path d="M 1047.17 3921.2  C 1044.902 3921.2  1043.12 3919.418  1043.12 3917.15  C 1043.12 3914.882  1044.902 3913.1  1047.17 3913.1  C 1049.438 3913.1  1051.22 3914.882  1051.22 3917.15  C 1051.22 3919.418  1049.438 3921.2  1047.17 3921.2  " fill-rule="nonzero" fill="#cccccc" stroke="none" />
    <path d="M 903 3954  L 903 3930.35  L 970.5 3919.6  L 1065 3949.04199288256  L 1119 3926.05  L 1173 3949.04199288256  L 1173 3954  L 903 3954  " fill-rule="nonzero" fill="#169bd5" stroke="none" />
  </g>
</svg>